<svg viewBox="0 0 1090 400" xmlns="http://www.w3.org/2000/svg"><g><g><g><g><g><line x1="68.3125" y1="377" x2="63.3125" y2="377" style="visibility: inherit;" fill="rgb(0, 0, 0)" stroke="rgb(204, 204, 204)" stroke-width="1px"></line><line x1="68.3125" y1="342.72727272727275" x2="63.3125" y2="342.72727272727275" style="visibility: inherit;" fill="rgb(0, 0, 0)" stroke="rgb(204, 204, 204)" stroke-width="1px"></line><line x1="68.3125" y1="308.45454545454544" x2="63.3125" y2="308.45454545454544" style="visibility: inherit;" fill="rgb(0, 0, 0)" stroke="rgb(204, 204, 204)" stroke-width="1px"></line><line x1="68.3125" y1="274.1818181818182" x2="63.3125" y2="274.1818181818182" style="visibility: inherit;" fill="rgb(0, 0, 0)" stroke="rgb(204, 204, 204)" stroke-width="1px"></line><line x1="68.3125" y1="239.9090909090909" x2="63.3125" y2="239.9090909090909" style="visibility: inherit;" fill="rgb(0, 0, 0)" stroke="rgb(204, 204, 204)" stroke-width="1px"></line><line x1="68.3125" y1="205.63636363636365" x2="63.3125" y2="205.63636363636365" style="visibility: inherit;" fill="rgb(0, 0, 0)" stroke="rgb(204, 204, 204)" stroke-width="1px"></line><line x1="68.3125" y1="171.36363636363637" x2="63.3125" y2="171.36363636363637" style="visibility: inherit;" fill="rgb(0, 0, 0)" stroke="rgb(204, 204, 204)" stroke-width="1px"></line><line x1="68.3125" y1="137.0909090909091" x2="63.3125" y2="137.0909090909091" style="visibility: inherit;" fill="rgb(0, 0, 0)" stroke="rgb(204, 204, 204)" stroke-width="1px"></line><line x1="68.3125" y1="102.81818181818181" x2="63.3125" y2="102.81818181818181" style="visibility: inherit;" fill="rgb(0, 0, 0)" stroke="rgb(204, 204, 204)" stroke-width="1px"></line><line x1="68.3125" y1="68.5454545454545" x2="63.3125" y2="68.5454545454545" style="visibility: inherit;" fill="rgb(0, 0, 0)" stroke="rgb(204, 204, 204)" stroke-width="1px"></line><line x1="68.3125" y1="34.27272727272731" x2="63.3125" y2="34.27272727272731" style="visibility: inherit;" fill="rgb(0, 0, 0)" stroke="rgb(204, 204, 204)" stroke-width="1px"></line><line x1="68.3125" y1="0" x2="63.3125" y2="0" style="visibility: inherit;" fill="rgb(0, 0, 0)" stroke="rgb(204, 204, 204)" stroke-width="1px"></line></g><g transform="translate(58.3125, 0)"><text x="0" y="377" dx="0em" dy="0.3em" style="text-anchor: end; visibility: hidden; font-family: &quot;Helvetica Neue&quot;, sans-serif; font-size: 12px; font-weight: 200;" fill="rgb(50, 49, 63)" stroke="none" stroke-width="1px">-5e+7</text><text x="0" y="342.72727272727275" dx="0em" dy="0.3em" style="text-anchor: end; visibility: inherit; font-family: &quot;Helvetica Neue&quot;, sans-serif; font-size: 12px; font-weight: 200;" fill="rgb(50, 49, 63)" stroke="none" stroke-width="1px">0</text><text x="0" y="308.45454545454544" dx="0em" dy="0.3em" style="text-anchor: end; visibility: inherit; font-family: &quot;Helvetica Neue&quot;, sans-serif; font-size: 12px; font-weight: 200;" fill="rgb(50, 49, 63)" stroke="none" stroke-width="1px">5e+7</text><text x="0" y="274.1818181818182" dx="0em" dy="0.3em" style="text-anchor: end; visibility: inherit; font-family: &quot;Helvetica Neue&quot;, sans-serif; font-size: 12px; font-weight: 200;" fill="rgb(50, 49, 63)" stroke="none" stroke-width="1px">1e+8</text><text x="0" y="239.9090909090909" dx="0em" dy="0.3em" style="text-anchor: end; visibility: inherit; font-family: &quot;Helvetica Neue&quot;, sans-serif; font-size: 12px; font-weight: 200;" fill="rgb(50, 49, 63)" stroke="none" stroke-width="1px">1.5e+8</text><text x="0" y="205.63636363636365" dx="0em" dy="0.3em" style="text-anchor: end; visibility: inherit; font-family: &quot;Helvetica Neue&quot;, sans-serif; font-size: 12px; font-weight: 200;" fill="rgb(50, 49, 63)" stroke="none" stroke-width="1px">2e+8</text><text x="0" y="171.36363636363637" dx="0em" dy="0.3em" style="text-anchor: end; visibility: inherit; font-family: &quot;Helvetica Neue&quot;, sans-serif; font-size: 12px; font-weight: 200;" fill="rgb(50, 49, 63)" stroke="none" stroke-width="1px">2.5e+8</text><text x="0" y="137.0909090909091" dx="0em" dy="0.3em" style="text-anchor: end; visibility: inherit; font-family: &quot;Helvetica Neue&quot;, sans-serif; font-size: 12px; font-weight: 200;" fill="rgb(50, 49, 63)" stroke="none" stroke-width="1px">3e+8</text><text x="0" y="102.81818181818181" dx="0em" dy="0.3em" style="text-anchor: end; visibility: inherit; font-family: &quot;Helvetica Neue&quot;, sans-serif; font-size: 12px; font-weight: 200;" fill="rgb(50, 49, 63)" stroke="none" stroke-width="1px">3.5e+8</text><text x="0" y="68.5454545454545" dx="0em" dy="0.3em" style="text-anchor: end; visibility: inherit; font-family: &quot;Helvetica Neue&quot;, sans-serif; font-size: 12px; font-weight: 200;" fill="rgb(50, 49, 63)" stroke="none" stroke-width="1px">4e+8</text><text x="0" y="34.27272727272731" dx="0em" dy="0.3em" style="text-anchor: end; visibility: inherit; font-family: &quot;Helvetica Neue&quot;, sans-serif; font-size: 12px; font-weight: 200;" fill="rgb(50, 49, 63)" stroke="none" stroke-width="1px">4.5e+8</text><text x="0" y="0" dx="0em" dy="0.3em" style="text-anchor: end; visibility: hidden; font-family: &quot;Helvetica Neue&quot;, sans-serif; font-size: 12px; font-weight: 200;" fill="rgb(50, 49, 63)" stroke="none" stroke-width="1px">5e+8</text></g><line x1="68.3125" y1="0" x2="68.3125" y2="377" fill="rgb(0, 0, 0)" stroke="rgb(204, 204, 204)" stroke-width="1px"></line></g></g><g transform="translate(68, 0)" clip-path="url(#clip_0)"><clipPath id="clip_0"><rect width="1021" height="377"></rect></clipPath><g><g><g><line x1="0" y1="0" x2="0" y2="377" fill="rgb(0, 0, 0)" stroke="rgb(60, 60, 60)" stroke-width="1px" opacity="0.25"></line><line x1="85.140625" y1="0" x2="85.140625" y2="377" fill="rgb(0, 0, 0)" stroke="rgb(60, 60, 60)" stroke-width="1px" opacity="0.25"></line><line x1="170.28125" y1="0" x2="170.28125" y2="377" fill="rgb(0, 0, 0)" stroke="rgb(60, 60, 60)" stroke-width="1px" opacity="0.25"></line><line x1="255.421875" y1="0" x2="255.421875" y2="377" fill="rgb(0, 0, 0)" stroke="rgb(60, 60, 60)" stroke-width="1px" opacity="0.25"></line><line x1="340.5625" y1="0" x2="340.5625" y2="377" fill="rgb(0, 0, 0)" stroke="rgb(60, 60, 60)" stroke-width="1px" opacity="0.25"></line><line x1="425.703125" y1="0" x2="425.703125" y2="377" fill="rgb(0, 0, 0)" stroke="rgb(60, 60, 60)" stroke-width="1px" opacity="0.25"></line><line x1="510.84375" y1="0" x2="510.84375" y2="377" fill="rgb(0, 0, 0)" stroke="rgb(60, 60, 60)" stroke-width="1px" opacity="0.25"></line><line x1="595.984375" y1="0" x2="595.984375" y2="377" fill="rgb(0, 0, 0)" stroke="rgb(60, 60, 60)" stroke-width="1px" opacity="0.25"></line><line x1="681.125" y1="0" x2="681.125" y2="377" fill="rgb(0, 0, 0)" stroke="rgb(60, 60, 60)" stroke-width="1px" opacity="0.25"></line><line x1="766.265625" y1="0" x2="766.265625" y2="377" fill="rgb(0, 0, 0)" stroke="rgb(60, 60, 60)" stroke-width="1px" opacity="0.25"></line><line x1="851.40625" y1="0" x2="851.40625" y2="377" fill="rgb(0, 0, 0)" stroke="rgb(60, 60, 60)" stroke-width="1px" opacity="0.25"></line><line x1="936.546875" y1="0" x2="936.546875" y2="377" fill="rgb(0, 0, 0)" stroke="rgb(60, 60, 60)" stroke-width="1px" opacity="0.25"></line><line x1="1021.6875" y1="0" x2="1021.6875" y2="377" fill="rgb(0, 0, 0)" stroke="rgb(60, 60, 60)" stroke-width="1px" opacity="0.25"></line></g><g><line x1="0" y1="377" x2="1021.6875" y2="377" fill="rgb(0, 0, 0)" stroke="rgb(60, 60, 60)" stroke-width="1px" opacity="0.25"></line><line x1="0" y1="342.72727272727275" x2="1021.6875" y2="342.72727272727275" fill="rgb(0, 0, 0)" stroke="rgb(60, 60, 60)" stroke-width="1px" opacity="0.25"></line><line x1="0" y1="308.45454545454544" x2="1021.6875" y2="308.45454545454544" fill="rgb(0, 0, 0)" stroke="rgb(60, 60, 60)" stroke-width="1px" opacity="0.25"></line><line x1="0" y1="274.1818181818182" x2="1021.6875" y2="274.1818181818182" fill="rgb(0, 0, 0)" stroke="rgb(60, 60, 60)" stroke-width="1px" opacity="0.25"></line><line x1="0" y1="239.9090909090909" x2="1021.6875" y2="239.9090909090909" fill="rgb(0, 0, 0)" stroke="rgb(60, 60, 60)" stroke-width="1px" opacity="0.25"></line><line x1="0" y1="205.63636363636365" x2="1021.6875" y2="205.63636363636365" fill="rgb(0, 0, 0)" stroke="rgb(60, 60, 60)" stroke-width="1px" opacity="0.25"></line><line x1="0" y1="171.36363636363637" x2="1021.6875" y2="171.36363636363637" fill="rgb(0, 0, 0)" stroke="rgb(60, 60, 60)" stroke-width="1px" opacity="0.25"></line><line x1="0" y1="137.0909090909091" x2="1021.6875" y2="137.0909090909091" fill="rgb(0, 0, 0)" stroke="rgb(60, 60, 60)" stroke-width="1px" opacity="0.25"></line><line x1="0" y1="102.81818181818181" x2="1021.6875" y2="102.81818181818181" fill="rgb(0, 0, 0)" stroke="rgb(60, 60, 60)" stroke-width="1px" opacity="0.25"></line><line x1="0" y1="68.5454545454545" x2="1021.6875" y2="68.5454545454545" fill="rgb(0, 0, 0)" stroke="rgb(60, 60, 60)" stroke-width="1px" opacity="0.25"></line><line x1="0" y1="34.27272727272731" x2="1021.6875" y2="34.27272727272731" fill="rgb(0, 0, 0)" stroke="rgb(60, 60, 60)" stroke-width="1px" opacity="0.25"></line><line x1="0" y1="0" x2="1021.6875" y2="0" fill="rgb(0, 0, 0)" stroke="rgb(60, 60, 60)" stroke-width="1px" opacity="0.25"></line></g></g></g><g><g><line x1="0" y1="342.72727272727275" x2="1021.6875" y2="342.72727272727275" fill="rgb(0, 0, 0)" stroke="rgb(153, 153, 153)" stroke-width="1.5px"></line></g></g><g><g><line x1="85.140625" y1="0" x2="85.140625" y2="377" fill="rgb(0, 0, 0)" stroke="rgb(153, 153, 153)" stroke-width="1.5px"></line></g></g><g><g><g><g><g><path stroke="rgb(255, 112, 67)" stroke-width="2px" d="M116.64265625,-7.014315998121674L117.4940625,0.06877838781656465L118.34546875,6.989244886304505L119.196875,13.750928499387726L120.04828124999999,20.35731191881183L120.8996875,26.812599249150935L121.75109375000001,33.12195387203815L122.60249999999999,39.288087768227456L123.45390625,45.31126818422126L124.3053125,51.19240124238917L125.15671875,56.93548750047154L126.008125,62.544427615994834L126.85953124999999,68.01969316018659L127.7109375,73.36295333904695L128.56234375,78.57526231907968L129.41375000000002,83.65830545836582L130.26515625,88.61217272084286L131.1165625,93.44056799323602L131.96796875,98.14588031012516L132.819375,102.72854287698527L133.67078125,107.19074585710092L134.5221875,111.53421571789727L135.37359375,115.76119912673857L136.225,119.87347400113413L137.07640625,123.8717473650442L137.92781250000002,127.75751383866296L138.77921875,131.53244229010684L139.63062499999998,135.1987711486096L140.48203125,138.7571152448021L141.3334375,142.20889633524496L142.18484375,145.55630986805605L143.03625000000002,148.80185757756092L143.88765625,151.947198433082L144.7390625,154.99269171439468L145.59046874999999,157.94123777772768L146.441875,160.79547176627293L147.29328125,163.55694844449104L148.1446875,166.22766668996735L148.99609375,168.81111140888953L149.8475,171.30891291951554L150.69890625,173.72403668261842L151.55031250000002,176.06004305975287L152.40171875000001,178.3187524103972L153.25312499999998,180.503656589511L154.10453125,182.61682438861573L154.9559375,184.6615150608058L155.80734375,186.63978066993798L156.65875,188.55438348559915L157.51015625,190.40876634154134L158.3615625,192.2048984260157L159.21296875,193.94470263960943L160.064375,195.63150862958383L160.91578125,197.26876186429578L161.7671875,198.8585691069411L162.61859375,200.40220757616464L163.47,201.90121569915334L164.32140625,203.35820987912834L165.1728125,204.77617254274972L166.02421875000002,206.15672644346802L166.87562499999999,207.50164365080806L167.72703124999998,208.81202250175758L168.5784375,210.08976349378185L169.42984375,211.3368623726327L170.28125,212.55500353267053L171.13265625,213.74489930069322L171.9840625,214.9086616458705L172.83546875,216.04742175552232L173.68687500000001,217.1630515813134L174.53828125,218.25663481206078L175.3896875,219.32883920869097L176.24109374999998,220.38089455357823L177.0925,221.41352555541968L177.94390625,222.42734690270632L178.7953125,223.42317926016926L179.64671875000002,224.4025810455561L180.498125,225.36630305933366L181.34953124999998,226.31562490760018L182.2009375,227.2518188485601L183.05234375,228.1752007724088L183.90375,229.08647786853618L184.75515625,229.98603935530352L185.6065625,230.87432056154574L186.45796875,231.7514905594729L187.309375,232.618326376411L188.16078125,233.4754784789375L189.0121875,234.32363545681702L189.86359374999998,235.16285951118113L190.715,235.99297739107232L191.56640625,236.81440718809793L192.4178125,237.62775509685875L193.26921875000002,238.4335559235698L194.120625,239.23188927196006L194.97203125,240.02358377408513L195.8234375,240.80856631099653L196.67484375,241.58697726150703L197.52625,242.3593483176315L198.37765625,243.12588882185162L199.2290625,243.8867331534746L200.08046875,244.64208477353932L200.931875,245.3919473121236L201.78328125000002,246.13603341127416L202.6346875,246.8739907929463L203.48609374999998,247.60615206704048L204.3375,248.33203682858795L205.18890625,249.0510322033346L206.0403125,249.76375752127348L206.89171875000002,250.47004917749138L207.743125,251.16943612176755L208.59453125,251.86223234360597L209.44593749999999,252.54851656398176L210.29734375,253.22796312820725L211.14875,253.90049509001526L212.00015625,254.56603557328188L212.8515625,255.2246788334237L213.70296875,255.87669857569057L214.554375,256.5223643090507L215.40578125000002,257.16217333743043L216.25718750000001,257.7961937304583L217.10859374999998,258.42416802009313L217.96,259.0460601720559L218.81140625,259.6615919315972L219.6628125,260.27116006368556L220.51421875,260.8753491931204L221.365625,261.474154755145L222.21703125,262.06762007345066L223.0684375,262.6557777226158L223.91984375,263.23894555720585L224.77125,263.81685585795987L225.62265625,264.3897362347759L226.4740625,264.957973307411L227.32546875,265.5214897706284L228.176875,266.0801032471043L229.02828125,266.6341978377171L229.87968750000002,267.18367717826663L230.73109374999999,267.72877298623274L231.58249999999998,268.26969009573963L232.43390625,268.8064768298074L233.2853125,269.3395109415208L234.13671875,269.8688611540034L234.988125,270.3948604305839L235.83953125,270.91729398635033L236.6909375,271.4360395307193L237.54234375000001,271.9509184035225L238.39375,272.4622204239317L239.24515625,272.97006464708625L240.09656249999998,273.47413207116085L240.94796875,273.9744703816056L241.799375,274.4712134755088L242.65078125,274.9645447834871L243.50218750000002,275.45426728027405L244.35359375,275.94030442634624L245.20499999999998,276.42255107471686L246.05640625,276.90076646737555L246.9078125,277.3749640782435L247.75921875,277.84493703312796L248.610625,278.3105348860586L249.46203125,278.77177484872607L250.3134375,279.2289173019629L251.16484375,279.6824211709959L252.01625,280.1321823433248L252.86765625,280.57827873254035L253.71906249999998,281.02057722352424L254.57046875,281.45917781047814L255.421875,281.8939496593778L256.27328125,282.32495465089943L257.1246875,282.75246899999416L257.97609375,283.1764895396329L258.82750000000004,283.59672044668883L259.67890625,284.0131246083769L260.5303125,284.42582452502614L261.38171875,284.83501872374296L262.233125,285.2407385826094L263.08453125,285.6429590593838L263.9359375,286.0416388072667L264.78734375,286.4367047621782L265.63875,286.82801218676144L266.49015625,287.2156716495114L267.3415625,287.5998438100705L268.19296875000003,287.9807018351332L269.044375,288.3580118327163L269.89578124999997,288.7319493250843L270.7471875,289.10258014341423L271.59859374999996,289.4697770838667L272.45,289.8333607317746L273.30140625,290.1933989147011L274.1528125,290.5497787873661L275.00421875,290.9026015386015L275.85562500000003,291.2519256882518L276.70703125,291.59768325586015L277.5584375,291.93989048297067L278.40984375,292.27850447160057L279.26124999999996,292.61357186696034L280.11265625,292.9450373049035L280.9640625,293.2729158229421L281.81546875,293.5973655984925L282.666875,293.91839379982275L283.51828125000003,294.2359871802573L284.3696875,294.55011805069984L285.22109375,294.860811473329L286.07250000000005,295.16816364327013L286.92390625,295.4722169234166L287.7753125,295.7729067998681L288.62671874999995,296.0702669482845L289.478125,296.36431318715256L290.32953125,296.65513616538243L291.18093749999997,296.94272775886583L292.03234375,297.22721579713766L292.88375,297.5087241371917L293.73515625,297.78737754267866L294.5865625,298.0630786856072L295.43796875000004,298.3357461379098L296.289375,298.6054045234731L297.14078125,298.8720302311748L297.9921875,299.135668317614L298.84359374999997,299.39617911420476L299.695,299.6535380430683L300.54640625,299.90795518656824L301.3978125,300.1593745373955L302.24921875,300.40785680971004L303.10062500000004,300.6533879825533L303.95203125,300.8959223546229L304.80343750000003,301.135463213501L305.65484375,301.3720607877369L306.50624999999997,301.6058406297331L307.35765625,301.8368462658399L308.2090625,302.06518387295847L309.06046875,302.2908370961387L309.911875,302.5137829616832L310.76328125,302.73399233119176L311.6146875,302.9514575921696L312.46609375,303.1662070789381L313.3175,303.3784519128174L314.16890625,303.5882639302359L315.0203125,303.79574655305066L315.87171874999996,304.00088067655764L316.723125,304.20359232448004L317.57453125,304.4038722063244L318.4259375,304.60175861688555L319.27734375,304.79732498249496L320.12875,304.9905681996788L320.98015625,305.18147763253455L321.8315625,305.3701116064298L322.68296875000004,305.55659504822154L323.534375,305.7409711089329L324.38578125,305.92323606754155L325.2371875,306.10346884925224L326.08859375,306.28175738809676L326.94,306.4580590292217L327.79140625,306.6323481797149L328.6428125,306.8047169631016L329.49421875,306.97521187967914L330.345625,307.143793929262L331.19703125,307.31055267464814L332.04843750000003,307.4755517240616L332.89984375,307.6388281457097L333.75124999999997,307.8003504408804L334.60265625,307.96013809580097L335.45406249999996,308.1182006087533L336.30546875,308.2745316147065L337.156875,308.42918651791484L338.00828125,308.58219417402165L338.8596875,308.7336267327766L339.71109375000003,308.88351432330234L340.5625,309.0318881837996L341.41390625,309.1787835080979L342.2653125,309.3242587012224L343.11671874999996,309.46836635382436L343.968125,309.61116434174915L344.81953125,309.7526698428677L345.6709375,309.89284490790243L346.52234375,310.0317029592869L347.37375000000003,310.16917856975397L348.22515625,310.3053355753069L349.0765625,310.4401881495478L349.92796875000005,310.5737228620923L350.779375,310.7058252721645L351.63078125,310.8365857407532L352.48218749999995,310.96603764663377L353.33359375,311.09421746798023L354.185,311.22119534769723L355.03640624999997,311.3469903402547L355.8878125,311.47156891251643L356.73921875,311.59497126460076L357.590625,311.7172357740332L358.44203125,311.83835256551083L359.29343750000004,311.95841990294286L360.14484375,312.0774419083112L360.99625,312.19535634789577L361.84765625,312.3121489127375L362.69906249999997,312.4278373389152L363.55046875,312.5424399451673L364.401875,312.65594798164585L365.25328125,312.7684198086239L366.1046875,312.87985315353797L366.95609375000004,312.9902312986682L367.8075,313.0995595675646L368.65890625000003,313.2078236067206L369.5103125,313.3150312549414L370.36171874999997,313.4212080533285L371.213125,313.5264066152698L372.06453125,313.63067057279824L372.9159375,313.73400088040626L373.76734375,313.83642662569827L374.61875,313.9379970663281L375.47015625,314.03872640270595L376.3215625,314.13859793035084L377.17296875,314.23763014148324L378.024375,314.33582535761724L378.87578125,314.43326064584306L379.72718749999996,314.529974569324L380.57859375,314.62595626741256L381.43,314.72124089935664L382.28140625,314.8158725919776L383.1328125,314.90981969482294L383.98421875,315.00308624889374L384.835625,315.09565932460896L385.68703125,315.1875070362199L386.53843750000004,315.2786267031865L387.38984375,315.36903536154824L388.24125,315.4587399427471L389.09265625,315.5477467991028L389.9440625,315.6360432910981L390.79546875,315.72366022047703L391.646875,315.8106160682862L392.49828125,315.89690985915354L393.3496875,315.98252675040123L394.20109375,316.0674885447862L395.0525,316.15182038796263L395.90390625000003,316.23550007859575L396.7553125,316.3185362304302L397.60671874999997,316.400963623349L398.458125,316.4828020285549L399.30953124999996,316.56401285931474L400.1609375,316.64458173740707L401.01234375,316.72450880971695L401.86375,316.80383693673923L402.71515625,316.8825775773163L403.56656250000003,316.96072773620796L404.41796875,317.0382735522702L405.269375,317.11521657936214L406.12078125,317.1915983287082L406.97218749999996,317.2674360299522L407.82359375,317.34273673069856L408.675,317.4174871118737L409.52640625,317.4916791820333L410.3778125,317.5653256939473L411.22921875000003,317.638472684732L412.080625,317.7111554537483L412.93203125,317.78336556897625L413.78343750000005,317.8551078417494L414.63484375,317.9263730948678L415.48625,317.9971437580116L416.33765624999995,318.0674191595342L417.1890625,318.13719450953874L418.04046875,318.2064460962687L418.89187499999997,318.2751991748521L419.74328125,318.3434930263658L420.5946875,318.4113128340013L421.44609375,318.4786793193099L422.2975,318.5456082054041L423.14890625000004,318.6120913785152L424.0003125,318.67812506710914L424.85171875,318.74369713772L425.703125,318.80878385935927L426.55453124999997,318.87338634761556L427.4059375,318.93750636856936L428.25734375,319.00117459350525L429.10875,319.0644072317395L429.96015625,319.1271887841346L430.81156250000004,319.1895439497535L431.66296875,319.2514689036703L432.51437500000003,319.3129679312931L433.36578125,319.37404031368493L434.21718749999997,319.43467465221096L435.06859375,319.4948805585993L435.92,319.55465612279596L436.77140625,319.6140429711321L437.6228125,319.6730594990429L438.47421875,319.73170522815303L439.325625,319.78996945252817L440.17703125,319.84782052388056L441.0284375,319.9052734517829L441.87984375,319.96236356343337L442.73125,320.01911699042364L443.58265624999996,320.0755170582542L444.4340625,320.1315685680434L445.28546875,320.1872941415533L446.136875,320.2426777402047L446.98828125,320.29774099757736L447.8396875,320.3525051192737L448.69109375,320.4069707646551L449.5425,320.4611257169749L450.39390625000004,320.5149862258213L451.2453125,320.56857300822L452.09671875,320.62190397802294L452.948125,320.6749641104501L453.79953125,320.72772684299736L454.6509375,320.7801636257984L455.50234375,320.83227487656995L456.35375,320.8840855223056L457.20515625,320.9355929715652L458.0565625,320.9867885407573L458.90796875,321.0376522139089L459.75937500000003,321.0882153021635L460.61078125,321.1384784962072L461.46218749999997,321.18844440390615L462.31359375,321.2381112997982L463.16499999999996,321.2874627944244L464.01640625,321.3365137304728L464.8678125,321.38529330301094L465.71921875,321.43382286762477L466.570625,321.4820960449385L467.42203125000003,321.53012381314494L468.2734375,321.5778979533415L469.12484375,321.62541079236854L469.97625,321.67264511396655L470.82765624999996,321.71963336074356L471.6790625,321.7663818375371L472.53046875,321.8129091330677L473.381875,321.8592050143861L474.23328125,321.905237020268L475.08468750000003,321.95100596343354L475.93609375,321.99650465442375L476.7875,322.0417221991997L477.63890625000005,322.0866789311562L478.4903125,322.13139417905734L479.34171875,322.1758767983435L480.19312499999995,322.22011619973335L481.04453125,322.26410986820366L481.8959375,322.3078595849222L482.74734374999997,322.3513806760442L483.59875,322.3946763052629L484.45015625,322.43773850024866L485.3015625,322.4805734448764L486.15296875,322.52317607565317L487.00437500000004,322.56553951593736L487.85578125,322.6076552528351L488.7071875,322.6495192753374L489.55859375,322.6911511113843L490.40999999999997,322.73257618683056L491.26140625,322.7737922095529L492.1128125,322.81479012718626L492.96421875,322.8555930232209L493.815625,322.89616539502344L494.66703125000004,322.93648429592315L495.5184375,322.9765595375539L496.36984375000003,323.0164205865323L497.22125,323.0560703170103L498.07265624999997,323.0955022280244L498.9240625,323.13470529026915L499.77546875,323.17369153052516L500.626875,323.212459939406L501.47828125,323.25100387927995L502.3296875,323.28932430284067L503.18109375,323.3274097177044L504.0325,323.3652932589863L504.88390625,323.4029640993918L505.7353125,323.4403960014532L506.58671875,323.47759131869014L507.43812499999996,323.51454817303227L508.28953125,323.55127640491025L509.1409375,323.587773693128L509.99234375,323.62404851551315L510.84375,323.6601054103988L511.69515625,323.69595971314834L512.5465625,323.7315981420708L513.3979687499999,323.76700121251525L514.249375,323.8021846518728L515.10078125,323.8371529613055L515.9521875,323.87192364732874L516.80359375,323.90651105239726L517.6550000000001,323.94091116962016L518.5064062499999,323.97513091704485L519.3578125,324.0091634782269L520.20921875,324.0430069567543L521.060625,324.0766695369617L521.91203125,324.11014242035884L522.7634375,324.1434362303971L523.61484375,324.1765403418746L524.46625,324.2094615403975L525.31765625,324.24219073660214L526.1690625,324.27471150959764L527.0204687500001,324.3070364897586L527.871875,324.3392001251279L528.72328125,324.3711934728949L529.5746875,324.4030056837369L530.42609375,324.43465492442397L531.2775,324.46614496629076L532.12890625,324.4974671048654L532.9803125,324.52863092328283L533.8317187499999,324.5596514936061L534.683125,324.5905427943455L535.53453125,324.6212962133346L536.3859375000001,324.6519010996371L537.23734375,324.6823532561459L538.08875,324.7126468744148L538.94015625,324.74279108173977L539.7915624999999,324.7727924512257L540.64296875,324.8026472496445L541.494375,324.832343366514L542.3457812500001,324.8618894380902L543.1971874999999,324.89128296903596L544.04859375,324.9205279457852L544.9,324.94962456674386L545.7514062500001,324.97857514440994L546.6028125,325.00737887282776L547.45421875,325.03603417169666L548.305625,325.06454996338164L549.1570312499999,325.092920634029L550.0084375,325.1211472022356L550.85984375,325.1492324726141L551.7112500000001,325.17717812793205L552.56265625,325.2049879196683L553.4140625,325.23267232416464L554.26546875,325.2602326919533L555.116875,325.2876577693538L555.96828125,325.31495012633957L556.8196875,325.342110756531L557.67109375,325.3691440946459L558.5224999999999,325.39605499496935L559.37390625,325.42283924134523L560.2253125,325.44950143280715L561.07671875,325.47604487713886L561.928125,325.50247539755605L562.77953125,325.5287855207154L563.6309375,325.5549707626111L564.48234375,325.5810202073848L565.33375,325.6069399178854L566.18515625,325.63274833764035L567.0365625000001,325.6584378884024L567.8879687499999,325.6840078617687L568.739375,325.709469348334L569.59078125,325.73482680900037L570.4421875,325.76008017849114L571.29359375,325.78523106273104L572.1450000000001,325.8102765867295L572.99640625,325.83522050912865L573.8478125,325.86006947202264L574.69921875,325.8848302024863L575.550625,325.9094996080372L576.40203125,325.93407199464053L577.2534374999999,325.95856313860247L578.10484375,325.98297592534334L578.95625,326.0072983770242L579.80765625,326.03153811275996L580.6590625,326.0557035425651L581.5104687500001,326.0797871000845L582.3618749999999,326.10378095532343L583.21328125,326.12769192592134L584.0646875,326.1515230057346L584.91609375,326.175271604168L585.7675,326.19894384395536L586.61890625,326.2225368183732L587.4703125,326.24604000956936L588.32171875,326.2694558806507L589.173125,326.29277987748134L590.02453125,326.3160180413979L590.8759375000001,326.3391690619296L591.72734375,326.36223818479414L592.57875,326.3852186868765L593.43015625,326.40811640485316L594.2815625,326.43092990545733L595.13296875,326.45365668363803L595.984375,326.4762837207283L596.83578125,326.4988229466188L597.6871874999999,326.52126835851675L598.53859375,326.5436251285646L599.39,326.56589306986604L600.2414062500001,326.5880759088287L601.0928125,326.61016820420633L601.94421875,326.63216340106925L602.795625,326.65407292064157L603.6470312499999,326.6758866163849L604.4984375,326.69759730364916L605.34984375,326.71919957491673L606.2012500000001,326.74070499149553L607.0526562499999,326.76211610326095L607.9040625,326.7834327950475L608.75546875,326.8046528043012L609.6068750000001,326.82578299894436L610.45828125,326.84682366118477L611.3096875,326.8677694767109L612.16109375,326.8886232889356L613.0124999999999,326.90938735227047L613.86390625,326.9300586324532L614.7153125,326.95064846965374L615.5667187500001,326.97115763597407L616.418125,326.9915816594026L617.26953125,327.0119271789143L618.1209375,327.03219708116677L618.97234375,327.0523810341546L619.82375,327.07246954849273L620.67515625,327.0924717363684L621.5265625,327.1123859363665L622.3779687499999,327.1322265058199L623.229375,327.1519899951283L624.08078125,327.1716754312588L624.9321875,327.19128990748254L625.78359375,327.2108332928532L626.635,327.2303011218937L627.48640625,327.2496857800453L628.3378125,327.26899202075447L629.18921875,327.2882276313618L630.040625,327.30740112281705L630.8920312500001,327.3265110213266L631.7434374999999,327.3455564426141L632.59484375,327.3645374044776L633.44625,327.3834369183229L634.29765625,327.4022486295392L635.1490625,327.42097585408715L636.0004687500001,327.4396326455432L636.851875,327.4582203073259L637.70328125,327.4767412665774L638.5546875,327.4951865606737L639.40609375,327.51355958585873L640.2575,327.53185744460615L641.1089062499999,327.550080043491L641.9603125,327.56823664864004L642.81171875,327.58632514263854L643.663125,327.6043382230377L644.51453125,327.6222857658226L645.3659375000001,327.64016876131177L646.2173437499999,327.65799109387797L647.06875,327.67575015887223L647.92015625,327.6934411033233L648.7715625,327.7110681441758L649.62296875,327.72864039196L650.474375,327.7461523457215L651.32578125,327.7636001565238L652.1771875,327.7809798699143L653.02859375,327.79829733867587L653.88,327.81555168756915L654.7314062500001,327.8327418430869L655.5828125,327.84986551603396L656.43421875,327.86693065507495L657.285625,327.8839387392268L658.13703125,327.900891752627L658.9884375,327.9177821119398L659.83984375,327.9346129442548L660.69125,327.9513839323711L661.5426562499999,327.96809598269533L662.3940625,327.9847485423445L663.24546875,328.0013357959522L664.0968750000001,328.0178591895713L664.94828125,328.03432178428824L665.7996875,328.05072102984565L666.65109375,328.0670630731801L667.5024999999999,328.083343376999L668.35390625,328.09957128292666L669.2053125,328.11574691230146L670.0567187500001,328.1318670477445L670.9081249999999,328.14793030719215L671.75953125,328.16393805486075L672.6109375,328.1798949478255L673.4623437500001,328.19580323196806L674.31375,328.2116637064536L675.16515625,328.22747301223575L676.0165625,328.24321816661416L676.8679687499999,328.25890070215036L677.719375,328.27452811874474L678.57078125,328.29010601306504L679.4221875000001,328.30563774311173L680.27359375,328.32111819495793L681.125,328.3365426551566L681.97640625,328.35190171527574L682.8278125,328.36721221316543L683.67921875,328.3824672522629L684.530625,328.39766488808505L685.38203125,328.4128127277601L686.2334374999999,328.42791533556516L687.08484375,328.4429743533391L687.93625,328.4579869276398L688.78765625,328.47294750785665L689.6390625,328.4878637308958L690.49046875,328.5027407272647L691.341875,328.51756786617705L692.19328125,328.5323437044335L693.0446875,328.54706627938737L693.89609375,328.56173660690513L694.7475000000001,328.57635968341583L695.5989062499999,328.59093850677675L696.4503125,328.60547926261154L697.30171875,328.6199856622942L698.153125,328.6344566424674L699.00453125,328.64889046838954L699.8559375000001,328.6632822606701L700.70734375,328.677625801493L701.55875,328.69192394053215L702.41015625,328.7061701621375L703.2615625,328.720363298737L704.11296875,328.73450868178764L704.9643749999999,328.7486078650726L705.81578125,328.7626617808617L706.6671875,328.77667427869886L707.51859375,328.79063999121934L708.37,328.8045600849134L709.2214062500001,328.8184325178571L710.0728124999999,328.83225880671426L710.92421875,328.84604479675585L711.775625,328.8597846729626L712.62703125,328.8734782365048L713.4784375,328.8871275615393L714.32984375,328.90073937619627L715.18125,328.9143056533541L716.03265625,328.9278292538307L716.8840625,328.9413107973893L717.73546875,328.9547440755245L718.5868750000001,328.9681264598602L719.43828125,328.98145966355247L720.2896875,328.9947397792224L721.14109375,329.00796446244254L721.9925,329.02114217710186L722.84390625,329.03427196953385L723.6953125,329.0473560093567L724.54671875,329.06039614670493L725.3981249999999,329.07339239493206L726.24953125,329.0863398267774L727.1009375,329.09924535643006L727.9523437500001,329.1121142291308L728.80375,329.1249484952966L729.65515625,329.1377526753598L730.5065625,329.1505229012159L731.3579687499999,329.1632546585477L732.209375,329.17595346421956L733.06078125,329.18861330616807L733.9121875000001,329.2012322222463L734.7635937499999,329.2138134220751L735.615,329.226361573245L736.46640625,329.23888057303793L737.3178125000001,329.2513590507318L738.16921875,329.2637978609846L739.020625,329.27620245186347L739.87203125,329.2885744471181L740.7234374999999,329.30090933736176L741.57484375,329.3132093522352L742.42625,329.32547692625025L743.2776562500001,329.33771297175014L744.1290625,329.34991748777736L744.98046875,329.36208334503004L745.831875,329.3742122979271L746.68328125,329.38630759257444L747.5346875,329.398362951181L748.38609375,329.41037954234497L749.2375,329.42236464758884L750.0889062499999,329.434316603826L750.9403125,329.44623221975013L751.79171875,329.4581216445774L752.643125,329.4699810972919L753.49453125,329.48181050273877L754.3459375,329.49360926746147L755.19734375,329.50537539029506L756.04875,329.5171082189043L756.90015625,329.5288112004335L757.7515625,329.5404880482601L758.6029687500001,329.55213386168333L759.4543749999999,329.56374624864634L760.30578125,329.57532651573325L761.1571875,329.58687325344L762.00859375,329.59838890624576L762.86,329.6098749408384L763.7114062500001,329.62133443068484L764.5628125,329.63276702641093L765.41421875,329.64417142166474L766.265625,329.6555446391807L767.11703125,329.666883795872L767.9684375,329.67819154879595L768.8198437499999,329.6894694921866L769.67125,329.70072077603925L770.52265625,329.71193851653265L771.3740625,329.7231229702832L772.22546875,329.7342720978063L773.0768750000001,329.7453835786838L773.9282812499999,329.75645821411933L774.7796875,329.7675019684716L775.63109375,329.7785173236284L776.4825,329.78950741381345L777.33390625,329.8004680875608L778.1853125,329.81139904744555L779.03671875,329.82229792155823L779.888125,329.83315944820765L780.73953125,329.8439788252882L781.5909375,329.85475920353656L782.4423437500001,329.86550082830377L783.29375,329.876200008255L784.14515625,329.88686056058935L784.9965625,329.8974891625354L785.84796875,329.90809201388487L786.699375,329.9186673508764L787.55078125,329.9292119217986L788.4021875,329.9397254207155L789.2535937499999,329.95020272879293L790.105,329.9606451616394L790.95640625,329.97106063734725L791.8078125000001,329.98144842313565L792.65921875,329.991812466245L793.510625,330.00215787683794L794.36203125,330.0124866242846L795.2134374999999,330.02279001966167L796.06484375,330.03307162343333L796.91625,330.04333083006003L797.7676562500001,330.0535672762178L798.6190624999999,330.0637801955489L799.47046875,330.073969676602L800.321875,330.08413577250667L801.1732812500001,330.0942845471404L802.0246875,330.1044196388297L802.87609375,330.11453555347964L803.7275,330.1246246077241L804.5789062499999,330.13468438499814L805.4303125,330.1447145320898L806.28171875,330.15471922398115L807.1331250000001,330.1646998689341L807.98453125,330.1746606020878L808.8359375,330.1846060979799L809.68734375,330.1945303875152L810.53875,330.20443208269097L811.39015625,330.21430925397823L812.2415625,330.2241623887506L813.09296875,330.2339923277958L813.9443749999999,330.24380231740474L814.79578125,330.2535910151701L815.6471875,330.26335816401115L816.49859375,330.2731030613158L817.35,330.2828280273349L818.20140625,330.2925355509464L819.0528125,330.30222767384055L819.90421875,330.3119017824862L821.60703125,330.3253970476735L822.4584375000001,330.3373212366041L823.3098437499999,330.34829236087154L824.16125,330.3586795823411L825.01265625,330.36871207522285L825.8640625,330.3785185702246L826.71546875,330.3881817894075L827.5668750000001,330.39774862418994L828.41828125,330.4072554348776L829.2696875,330.4167191023811L830.12109375,330.4261475617923L830.9725,330.4355439290754L831.82390625,330.4449139123543L832.6753124999999,330.4542609365035L833.52671875,330.46358541135663L834.378125,330.47288374426853L835.22953125,330.48215432801567L836.0809375,330.4914016819003L836.9323437500001,330.5006263240493L837.7837499999999,330.5098318555205L838.63515625,330.5190182434941L839.4865625,330.52818656500557L840.33796875,330.5373352728215L841.189375,330.54645795496566L842.04078125,330.5555540544339L842.8921875,330.56462543047854L843.74359375,330.5736748437417L844.595,330.5827110793359L845.44640625,330.591736118147L846.2978125000001,330.6007478585246L847.14921875,330.60974284602383L848.000625,330.61871571779614L848.85203125,330.6276670946777L849.7034375,330.6365968008066L850.55484375,330.6455047306658L851.40625,330.6543908209449L852.25765625,330.6632572271124L853.1090624999999,330.6721030489947L853.96046875,330.6809277464877L854.811875,330.6897293504381L855.6632812500001,330.6985072277174L856.5146875,330.70725825663044L857.36609375,330.715988241251L858.2175,330.7246957287506L859.0689062499999,330.733383137614L859.9203125,330.7420530156593L860.77171875,330.7507008595774L861.6231250000001,330.7593272575646L862.4745312499999,330.76793530435697L863.3259375,330.77652521170506L864.17734375,330.78509765502304L865.0287500000001,330.79364974937744L865.88015625,330.80218195726286L866.7315625,330.8107000398122L867.58296875,330.81920306679643L868.4343749999999,330.8276904800779L869.28578125,330.83616249313764L870.1371875,330.84461813733714L870.9885937500001,330.8530617667659L871.84,330.8614866716959L872.69140625,330.8698921164721L873.5428125,330.87827985315596L874.39421875,330.8866509329845L875.245625,330.89500653506343L876.09703125,330.90334352831076L876.9484375,330.911660582441L877.7998437499999,330.9199618345555L878.65125,330.92824757346057L879.50265625,330.93651577898544L880.3540625,330.9447635939367L881.20546875,330.95299149745296L882.056875,330.96120032538084L882.90828125,330.96939167595576L883.7596875,330.9775692499371L884.61109375,330.98572813905315L885.4625,330.9938659467046L886.3139062500001,331.00198562184096L887.1653124999999,331.0100850952864L888.01671875,331.0181680608082L888.868125,331.0262339928486L889.71953125,331.03428367280003L890.5709375,331.04231208586185L891.4223437500001,331.05031896497167L892.27375,331.0583030531648L893.12515625,331.06626743480797L893.9765625,331.0742134121575L894.82796875,331.0821401214763L895.679375,331.09004978634033L896.5307812499999,331.097945385986L897.3821875,331.1058248694098L898.23359375,331.1136842641913L899.085,331.12152776724207L899.93640625,331.129356251618L900.7878125000001,331.13717078951623L901.6392187499999,331.1449725726188L902.490625,331.1527579290258L903.34203125,331.16052520396096L904.1934375,331.16827395292205L905.04484375,331.17600500593505L905.89625,331.18371831265193L906.74765625,331.1914127461366L907.5990625,331.19908982368196L908.45046875,331.20675210075467L909.301875,331.2143978204528L910.1532812500001,331.22202647699896L911.0046875,331.2296383152903L911.85609375,331.2372356757196L912.7075,331.2448188657954L913.55890625,331.25238724747726L914.4103125,331.2599409863045L915.26171875,331.26747963323726L916.113125,331.2750067573969L916.9645312499999,331.28252203261997L917.8159375,331.2900241664811L918.66734375,331.29751457697955L919.5187500000001,331.30499301818776L920.37015625,331.3124587941854L921.2215625,331.3199131325112L922.07296875,331.327357592234L922.9243749999999,331.3347906411586L923.77578125,331.3422091665133L924.6271875,331.3496145908171L925.4785937500001,331.3570069450357L926.3299999999999,331.364384328476L927.18140625,331.3717466974492L928.0328125,331.3790934773786L928.8842187500001,331.38642267842715L929.735625,331.39373420341997L930.58703125,331.4010268973247L931.4384375,331.4083033573039L932.2898437499999,331.41556651256417L933.14125,331.4228181206294L933.99265625,331.4300521072867L934.8440625000001,331.43726866655385L935.69546875,331.4444659955687L936.546875,331.45164136752305" style="fill: none;" fill="none"></path></g></g></g></g><g opacity="0.2"><g><g><g><path stroke="rgb(255, 112, 67)" stroke-width="2px" d="M115.79124999999999,-3.151840639999989L116.64265625,3.852101003636392L117.4940625,10.693419927272714L118.34546875,17.3699446109091L119.196875,23.893453905454578L120.04828124999999,30.26688704000003L120.8996875,36.495530239999994L121.75109375000001,42.58598580363639L122.60249999999999,48.53728861090906L123.45390625,54.34603880727269L124.3053125,60.01410082909092L125.15671875,65.55011688727274L126.008125,70.95783778909089L126.85953124999999,76.23259147636361L127.7109375,81.37784360727272L128.56234375,86.39372578909092L129.41375000000002,91.28287016727273L130.26515625,96.04297361454547L131.1165625,100.68316090181816L131.96796875,105.20384878545457L132.819375,109.60253672727276L133.67078125,113.88405032727275L134.5221875,118.04942050909091L135.37359375,122.10167424L136.225,126.04188631272729L137.07640625,129.86915741090908L137.92781250000002,133.5861635490909L138.77921875,137.19483496727275L139.63062499999998,140.69826443636362L140.48203125,144.0946313890909L141.3334375,147.3865679709091L142.18484375,150.57743016727272L143.03625000000002,153.6701791418182L143.88765625,156.66520971636365L144.7390625,159.56093163636362L145.59046874999999,162.36405687272728L146.441875,165.0768227490909L147.29328125,167.6991634618182L148.1446875,170.23374405818183L148.99609375,172.68627848727274L149.8475,175.05561518545454L150.69890625,177.34672232727274L151.55031250000002,179.56405262545454L152.40171875000001,181.70681643636365L153.25312499999998,183.7810128581818L154.10453125,185.78657608727275L154.9559375,187.7285510690909L155.80734375,189.60717908363637L156.65875,191.4262877090909L157.51015625,193.19034062545455L158.3615625,194.8990965527273L159.21296875,196.55440896000002L160.064375,198.16171761454547L160.91578125,199.72464171636364L161.7671875,201.2432799709091L162.61859375,202.71766528L163.47,204.14972788363636L164.32140625,205.5437011490909L165.1728125,206.90311653818182L166.02421875000002,208.22755729454545L166.87562499999999,209.51901946181817L167.72703124999998,210.77759077818183L168.5784375,212.0063749818182L169.42984375,213.2075106909091L170.28125,214.38221527272725L171.13265625,215.52974295272728L171.9840625,216.65430516363637L172.83546875,217.75556192L173.68687500000001,218.83649632L174.53828125,219.89700965818182L175.3896875,220.93714580363635L176.24109374999998,221.95897757090907L177.0925,222.96247205818182L177.94390625,223.94807892363636L178.7953125,224.91692779636364L179.64671875000002,225.87168372363635L180.498125,226.81188608L181.34953124999998,227.73960768L182.2009375,228.65610976L183.05234375,229.5602736581818L183.90375,230.45339351272727L184.75515625,231.33538158545454L185.6065625,232.2067423709091L186.45796875,233.06724555636364L187.309375,233.91858010181818L188.16078125,234.7612066327273L189.0121875,235.59587092363637L189.86359374999998,236.42169559272727L190.715,237.23815421090907L191.56640625,238.04655188363637L192.4178125,238.84777696L193.26921875000002,239.64225716363637L194.120625,240.42938929454544L194.97203125,241.21112552727274L195.8234375,241.98604011636363L196.67484375,242.75459368727275L197.52625,243.51790490181818L198.37765625,244.27569957818181L199.2290625,245.0279996509091L200.08046875,245.77511220363638L200.931875,246.51674112L201.78328125000002,247.25216256000002L202.6346875,247.98092686545456L203.48609374999998,248.70439397818183L204.3375,249.42086397090907L205.18890625,250.12952526545453L206.0403125,250.83284549818183L206.89171875000002,251.52948666181817L207.743125,252.2185165381818L208.59453125,252.90142667636363L209.44593749999999,253.57794289454546L210.29734375,254.24713297454545L211.14875,254.90929303272728L212.00015625,255.56434629818182L212.8515625,256.21264372363635L213.70296875,256.8547281890909L214.554375,257.4908629090909L215.40578125000002,258.12188688000003L216.25718750000001,258.74722432L217.10859374999998,259.36612945454544L217.96,259.9788984L218.81140625,260.5848895709091L219.6628125,261.1855122618182L220.51421875,261.78163288727274L221.365625,262.37236309818184L222.21703125,262.95781805090905L223.0684375,263.53801419636363L223.91984375,264.1136973090909L224.77125,264.6837213090909L225.62265625,265.2490568L226.4740625,265.81032891636363L227.32546875,266.36676446545454L228.176875,266.91802346181817L229.02828125,267.46533972363636L229.87968750000002,268.0078961890909L230.73109374999999,268.5464166981818L231.58249999999998,269.08106576L232.43390625,269.6116569309091L233.2853125,270.1390621090909L234.13671875,270.6628864727273L234.988125,271.18385934545455L235.83953125,271.70094432L236.6909375,272.21415784727276L237.54234375000001,272.72323671272727L238.39375,273.22917345454545L239.24515625,273.7318309818182L240.09656249999998,274.2302332072727L240.94796875,274.7249778472727L241.799375,275.2163281163636L242.65078125,275.70454174545455L243.50218750000002,276.18885102545454L244.35359375,276.66936014545456L245.20499999999998,277.14592104727274L246.05640625,277.61808955636366L246.9078125,278.08626049454546L247.75921875,278.54989646545454L248.610625,279.00893166545455L249.46203125,279.46363479272725L250.3134375,279.91463098181816L251.16484375,280.3626769745455L252.01625,280.80682410181817L252.86765625,281.24742331636367L253.71906249999998,281.68402496L254.57046875,282.1170786909091L255.421875,282.5461074327273L256.27328125,282.97146213818183L257.1246875,283.3937405236364L257.97609375,283.8125203490909L258.82750000000004,284.2270668072727L259.67890625,284.63773085090907L260.5303125,285.0448744L261.38171875,285.4488100218182L262.233125,285.8493183709091L263.08453125,286.24628977454546L263.9359375,286.6396584290909L264.78734375,287.02930369454543L265.63875,287.41497332363633L266.49015625,287.79716084363633L267.3415625,288.1761020509091L268.19296875000003,288.5519888727273L269.044375,288.9239768290909L269.89578124999997,289.29285556363635L270.7471875,289.6585263709091L271.59859374999996,290.0205724945455L272.45,290.3787362036364L273.30140625,290.73345618909093L274.1528125,291.0843485963636L275.00421875,291.4318356654545L275.85562500000003,291.7759119127273L276.70703125,292.1163196072727L277.5584375,292.45320132363634L278.40984375,292.78642545454545L279.26124999999996,293.11617296L280.11265625,293.4422354618182L280.9640625,293.7647336L281.81546875,294.0840402618182L282.666875,294.3999361018182L283.51828125000003,294.71237725090907L284.3696875,295.02131435636363L285.22109375,295.3268516072727L286.07250000000005,295.62919189818183L286.92390625,295.92829684363636L287.7753125,296.2239416145454L288.62671874999995,296.5163071709091L289.478125,296.80538254545456L290.32953125,297.09137063272726L291.18093749999997,297.3741151490909L292.03234375,297.65394785454544L292.88375,297.93098664727273L293.73515625,298.2053576509091L294.5865625,298.4766304L295.43796875000004,298.74474731636366L296.289375,299.0098921018182L297.14078125,299.2719687927273L297.9921875,299.53112544727276L298.84359374999997,299.7869453090909L299.695,300.03957643636363L300.54640625,300.28958090181817L301.3978125,300.53650356363636L302.24921875,300.7805802181818L303.10062500000004,301.02168474181815L303.95203125,301.2597239127273L304.80343750000003,301.4947745018182L305.65484375,301.72695714909094L306.50624999999997,301.9565103927273L307.35765625,302.18335472L308.2090625,302.4076902836364L309.06046875,302.6293169309091L309.911875,302.84820176L310.76328125,303.06430638545453L311.6146875,303.27765548363635L312.46609375,303.4883313090909L313.3175,303.69681916363635L314.16890625,303.90298195636365L315.0203125,304.10697048727275L315.87171874999996,304.3085818618182L316.723125,304.50765979636367L317.57453125,304.7042920290909L318.4259375,304.89858823272726L319.27734375,305.0906745309091L320.12875,305.28043302545456L320.98015625,305.46784178181815L321.8315625,305.65306256727274L322.68296875000004,305.8363202109091L323.534375,306.0175352L324.38578125,306.19663350545454L325.2371875,306.3738180218182L326.08859375,306.5491901963636L326.94,306.7225114909091L327.79140625,306.89378190545455L328.6428125,307.0632701381818L329.49421875,307.23095425454545L330.345625,307.39666700363637L331.19703125,307.56069079272726L332.04843750000003,307.7230502981818L332.89984375,307.88374277818184L333.75124999999997,308.04263388363637L334.60265625,308.1998195781818L335.45406249999996,308.35529437818184L336.30546875,308.50902812363637L337.156875,308.6611688727273L338.00828125,308.81170565818184L338.8596875,308.9607755709091L339.71109375000003,309.10834570909094L340.5625,309.2544489745454L341.41390625,309.39912649454544L342.2653125,309.54247149090907L343.11671874999996,309.68452783272727L343.968125,309.82536132363634L344.81953125,309.9649280945455L345.6709375,310.10310750545455L346.52234375,310.2399900363636L347.37375000000003,310.37539198545454L348.22515625,310.5095710836364L349.0765625,310.6424670109091L349.92796875000005,310.7740249309091L350.779375,310.90397888727273L351.63078125,311.03272644363636L352.48218749999995,311.1602155054545L353.33359375,311.2864872L354.185,311.4116621672727L355.03640624999997,311.5356828290909L355.8878125,311.6584367709091L356.73921875,311.78007479272725L357.590625,311.9006325381818L358.44203125,312.0200277527273L359.29343750000004,312.1385209090909L360.14484375,312.25597491636364L360.99625,312.3722280072727L361.84765625,312.48733776L362.69906249999997,312.6013699781818L363.55046875,312.71434385454546L364.401875,312.82621003636365L365.25328125,312.9371275490909L366.1046875,313.0470031709091L366.95609375000004,313.15579851636363L367.8075,313.2635519709091L368.65890625000003,313.37021966545456L369.5103125,313.4758427272727L370.36171874999997,313.5804732509091L371.213125,313.6842044581818L372.06453125,313.7870665090909L372.9159375,313.8889963418182L373.76734375,313.99006524363637L374.61875,314.0903527272727L375.47015625,314.18982040727275L376.3215625,314.28840522181815L377.17296875,314.3861784581818L378.024375,314.48311818181816L378.87578125,314.5794135781818L379.72718749999996,314.67504545454545L380.57859375,314.76992881454544L381.43,314.8641678472727L382.28140625,314.9578201309091L383.1328125,315.0507403490909L383.98421875,315.14298608L384.835625,315.23451893818185L385.68703125,315.3252786036364L386.53843750000004,315.41530620363636L387.38984375,315.5046483490909L388.24125,315.59329681454545L389.09265625,315.68125708363635L389.9440625,315.7684880290909L390.79546875,315.85508561454543L391.646875,315.94104984L392.49828125,316.02635054545453L393.3496875,316.1109520872727L394.20109375,316.19493123636363L395.0525,316.27831815272725L395.90390625000003,316.36101961454546L396.7553125,316.4430904581818L397.60671874999997,316.5246047127273L398.458125,316.60555963636364L399.30953124999996,316.68582910545456L400.1609375,316.76543505454543L401.01234375,316.8443994181818L401.86375,316.92282912727273L402.71515625,317.0006885381818L403.56656250000003,317.07795297454544L404.41796875,317.15459227636364L405.269375,317.23063112L406.12078125,317.30617095272726L406.97218749999996,317.3811925818182L407.82359375,317.4556877818182L408.675,317.52961268363634L409.52640625,317.60296728727275L410.3778125,317.67579546181815L411.22921875000003,317.7481931709091L412.080625,317.82017960727273L412.93203125,317.89168074181816L413.78343750000005,317.9627212509091L414.63484375,318.0332709745455L415.48625,318.10329975272725L416.33765624999995,318.1728322618182L417.1890625,318.2418575345455L418.04046875,318.31032347636364L418.89187499999997,318.3783287927273L419.74328125,318.44593380363636L420.5946875,318.51304254545454L421.44609375,318.57972904727274L422.2975,318.64600153454546L423.14890625000004,318.7118161381818L424.0003125,318.7771756L424.85171875,318.84205524363637L425.703125,318.9064139418182L426.55453124999997,318.97029008L427.4059375,319.0336864L428.25734375,319.0966769309091L429.10875,319.1592561890909L429.96015625,319.22136111272727L430.81156250000004,319.28307669818184L431.66296875,319.34435633454547L432.51437500000003,319.40521647272726L433.36578125,319.4656488872727L434.21718749999997,319.52562616L435.06859375,319.5851894181818L435.92,319.64431946909093L436.77140625,319.70312324363636L437.6228125,319.76158429090907L438.47421875,319.8196738218182L439.325625,319.8773657890909L440.17703125,319.9345971309091L441.0284375,319.99145284363635L441.87984375,320.04799873090906L442.73125,320.1042471309091L443.58265624999996,320.16011716L444.4340625,320.21564583272726L445.28546875,320.27088250181816L446.136875,320.3257531381818L446.98828125,320.38033588363635L447.8396875,320.4346513018182L448.69109375,320.48866923272726L449.5425,320.54235814545456L450.39390625000004,320.5957769890909L451.2453125,320.6489531818182L452.09671875,320.70190043272726L452.948125,320.7545543090909L453.79953125,320.8068709418182L454.6509375,320.8588188L455.50234375,320.91044175272725L456.35375,320.96180149090907L457.20515625,321.0128541454545L458.0565625,321.06358189454545L458.90796875,321.1139477236364L459.75937500000003,321.16405993454543L460.61078125,321.21387328727275L461.46218749999997,321.26339326545457L462.31359375,321.3126116436364L463.16499999999996,321.36149003636365L464.01640625,321.41009013454544L464.8678125,321.4584626618182L465.71921875,321.50661721454543L466.570625,321.55450581090906L467.42203125000003,321.60216546545456L468.2734375,321.64955916363635L469.12484375,321.6966800509091L469.97625,321.7434965963636L470.82765624999996,321.79011573090906L471.6790625,321.83650455272726L472.53046875,321.8827000763636L473.381875,321.92864883636366L474.23328125,321.97428502909094L475.08468750000003,322.0196593781818L475.93609375,322.0647526909091L476.7875,322.10954851636365L477.63890625000005,322.1541140290909L478.4903125,322.1984670509091L479.34171875,322.2426007272727L480.19312499999995,322.2864753018182L481.04453125,322.33010037090907L481.8959375,322.37348416L482.74734374999997,322.4166623127273L483.59875,322.4596197490909L484.45015625,322.50233179272726L485.3015625,322.5448258618182L486.15296875,322.58708002181817L487.00437500000004,322.6290846763636L487.85578125,322.67082885818184L488.7071875,322.7123153090909L489.55859375,322.75359886545453L490.40999999999997,322.7947138L491.26140625,322.83561624363637L492.1128125,322.8762870036364L492.96421875,322.91679736727275L493.815625,322.9570239527273L494.66703125000004,322.9969626472727L495.5184375,323.0366724L496.36984375000003,323.07621216L497.22125,323.1155449127273L498.07265624999997,323.15465009454545L498.9240625,323.19350988363635L499.77546875,323.2321708909091L500.626875,323.27061255272724L501.47828125,323.30881978909093L502.3296875,323.34680493818183L503.18109375,323.38453784L504.0325,323.4221185709091L504.88390625,323.45947036L505.7353125,323.49654385454545L506.58671875,323.53338429454544L507.43812499999996,323.5699834545455L508.28953125,323.6063687527273L509.1409375,323.64251962545455L509.99234375,323.6784607490909L510.84375,323.7141907527273L511.69515625,323.74974116727276L512.5465625,323.7850557854545L513.3979687499999,323.8201058181818L514.249375,323.85495981090907L515.10078125,323.88960542545453L515.9521875,323.92407967636365L516.80359375,323.95839216L517.6550000000001,323.99251134545455L518.5064062499999,324.0264605381818L519.3578125,324.06021232L520.20921875,324.09377217454545L521.060625,324.12716340727275L521.91203125,324.16035174545453L522.7634375,324.19337694545453L523.61484375,324.2261965090909L524.46625,324.2588433381818L525.31765625,324.2912845309091L526.1690625,324.3234926690909L527.0204687500001,324.35552396L527.871875,324.3874455781818L528.72328125,324.41918349454545L529.5746875,324.450724L530.42609375,324.48212878545456L531.2775,324.5133800290909L532.12890625,324.5444503127273L532.9803125,324.5753766509091L533.8317187499999,324.6061823490909L534.683125,324.63687974545456L535.53453125,324.6674263418182L536.3859375000001,324.6978084290909L537.23734375,324.7280314909091L538.08875,324.7580873018182L538.94015625,324.78800739272725L539.7915624999999,324.8177945054546L540.64296875,324.8474294472727L541.494375,324.8768875418182L542.3457812500001,324.90620854545455L543.1971874999999,324.93537326545453L544.04859375,324.9643954109091L544.9,324.9932694981818L545.7514062500001,325.0220010109091L546.6028125,325.05058446545456L547.45421875,325.07901712L548.305625,325.1073236509091L549.1570312499999,325.13547664L550.0084375,325.16348705454544L550.85984375,325.1913603781818L551.7112500000001,325.2190966109091L552.56265625,325.2467026072727L553.4140625,325.2741989309091L554.26546875,325.30157324363637L555.116875,325.32879538545455L555.96828125,325.3558886618182L556.8196875,325.3828517018182L557.67109375,325.40969410181816L558.5224999999999,325.43642134545456L559.37390625,325.4630156109091L560.2253125,325.48949472L561.07671875,325.51586004363634L561.928125,325.54212117818184L562.77953125,325.56825070545455L563.6309375,325.59424862545455L564.48234375,325.6200943745455L565.33375,325.6458194836364L566.18515625,325.6714609672727L567.0365625000001,325.69697221454544L567.8879687499999,325.7223628218182L568.739375,325.7476615781818L569.59078125,325.77286300000003L570.4421875,325.7979602327273L571.29359375,325.8229573890909L572.1450000000001,325.84784487272725L572.99640625,325.87263639272726L573.8478125,325.89734291636364L574.69921875,325.9219712981818L575.550625,325.9465037163636L576.40203125,325.97093057454543L577.2534374999999,325.99529985454546L578.10484375,326.0195951054545L578.95625,326.04378205454543L579.80765625,326.06789771636363L580.6590625,326.09195168727274L581.5104687500001,326.11591243636366L582.3618749999999,326.1397717381818L583.21328125,326.1635583818182L584.0646875,326.1872696254545L584.91609375,326.2108945018182L585.7675,326.23445220363635L586.61890625,326.25792628L587.4703125,326.2812947963636L588.32171875,326.30457968727274L589.173125,326.3277658727273L590.02453125,326.35087528727274L590.8759375000001,326.37389559272725L591.72734375,326.3968418690909L592.57875,326.41968944L593.43015625,326.44246298181815L594.2815625,326.4651501563636L595.13296875,326.4877468509091L595.984375,326.51022427636366L596.83578125,326.53263178545456L597.6871874999999,326.55493647636365L598.53859375,326.5771602836364L599.39,326.59929498181816L600.2414062500001,326.62135016727274L601.0928125,326.6433066472727L601.94421875,326.6651561963636L602.795625,326.6869372L603.6470312499999,326.70860716L604.4984375,326.73016333454547L605.34984375,326.75160298181817L606.2012500000001,326.77296311636366L607.0526562499999,326.7942327709091L607.9040625,326.81540783272726L608.75546875,326.8364828181818L609.6068750000001,326.8574782909091L610.45828125,326.87838465454547L611.3096875,326.8991882L612.16109375,326.91990400727275L613.0124999999999,326.94053344727274L613.86390625,326.9610655527273L614.7153125,326.98153322545454L615.5667187500001,327.0019213854545L616.418125,327.0222176945455L617.26953125,327.0424454581818L618.1209375,327.06260193454546L618.97234375,327.0826569636364L619.82375,327.10260232L620.67515625,327.12247501818183L621.5265625,327.14225723636366L622.3779687499999,327.16198736L623.229375,327.1816352290909L624.08078125,327.20120358545455L624.9321875,327.22071162181817L625.78359375,327.2401483709091L626.635,327.2595028654545L627.48640625,327.2787627672727L628.3378125,327.29795138181817L629.18921875,327.3170810472727L630.040625,327.33616136L630.8920312500001,327.3551758690909L631.7434374999999,327.3741245745455L632.59484375,327.3930088472727L633.44625,327.4117861890909L634.29765625,327.4304661963636L635.1490625,327.4490666909091L636.0004687500001,327.4676178327273L636.851875,327.48610180000003L637.70328125,327.5045227054545L638.5546875,327.5228545018182L639.40609375,327.54111912363635L640.2575,327.5593042327273L641.1089062499999,327.5774139418182L641.9603125,327.59547155636363L642.81171875,327.61345788363633L643.663125,327.63135784363635L644.51453125,327.64920708L645.3659375000001,327.66699325454545L646.2173437499999,327.68472459272726L647.06875,327.70238875636363L647.92015625,327.71997752L648.7715625,327.73750870545456L649.62296875,327.75499876363637L650.474375,327.7724202763636L651.32578125,327.7897718727273L652.1771875,327.80704944L653.02859375,327.8242735418182L653.88,327.8414332109091L654.7314062500001,327.85852707636366L655.5828125,327.87555102545457L656.43421875,327.89252836363636L657.285625,327.9094508654546L658.13703125,327.92632127272725L658.9884375,327.9431176509091L659.83984375,327.95985919272727L660.69125,327.97654041454547L661.5426562499999,327.99316405818183L662.3940625,328.00972738181815L663.24546875,328.0262166763636L664.0968750000001,328.04264428L664.94828125,328.05901567636363L665.7996875,328.0753198981818L666.65109375,328.09157613818184L667.5024999999999,328.1077638327273L668.35390625,328.1239131418182L669.2053125,328.14001035636363L670.0567187500001,328.15604725090907L670.9081249999999,328.1720251963636L671.75953125,328.18794967636364L672.6109375,328.2038302872727L673.4623437500001,328.21966565818184L674.31375,328.2354544181818L675.16515625,328.2511869709091L676.0165625,328.2668358981818L676.8679687499999,328.2824245054545L677.719375,328.2979692436364L678.57078125,328.31347285454547L679.4221875000001,328.32893533818185L680.27359375,328.3443388727273L681.125,328.35967934545454L681.97640625,328.3749403054545L682.8278125,328.39017796L683.67921875,328.4053498109091L684.530625,328.42046134181817L685.38203125,328.4355344872727L686.2334374999999,328.4505692472727L687.08484375,328.46556288L687.93625,328.4805057890909L688.78765625,328.4953883781818L689.6390625,328.51023806545453L690.49046875,328.5250562218182L691.341875,328.5398085745455L692.19328125,328.55450746181816L693.0446875,328.56915014181817L693.89609375,328.5837420981818L694.7475000000001,328.5982942981818L695.5989062499999,328.6128067418182L696.4503125,328.6272903963636L697.30171875,328.6417452618182L698.153125,328.65616311272726L699.00453125,328.6705412072727L699.8559375000001,328.6848699490909L700.70734375,328.69914111272726L701.55875,328.7133711490909L702.41015625,328.72753949454545L703.2615625,328.7416530036364L704.11296875,328.75572675636363L704.9643749999999,328.76975664L705.81578125,328.78374265454545L706.6671875,328.7976930254546L707.51859375,328.81158856L708.37,328.82544022545454L709.2214062500001,328.83924116727275L710.0728124999999,328.85299824L710.92421875,328.86672378181817L711.775625,328.8803944872727L712.62703125,328.89401858181816L713.4784375,328.9076015490909L714.32984375,328.9211570981818L715.18125,328.9346550690909L716.03265625,328.94811465454546L716.8840625,328.96153311272724L717.73546875,328.9748939927273L718.5868750000001,328.98820003636365L719.43828125,329.0014594690909L720.2896875,329.0146599527273L721.14109375,329.0278014872727L721.9925,329.04090874909093L722.84390625,329.0539666581818L723.6953125,329.0669820690909L724.54671875,329.07995635272727L725.3981249999999,329.0928867672727L726.24953125,329.10576097454543L727.1009375,329.1186036509091L727.9523437500001,329.13141753818184L728.80375,329.14419989454547L729.65515625,329.15695894545456L730.5065625,329.16967824L731.3579687499999,329.18235229454547L732.209375,329.19500167272724L733.06078125,329.2076030690909L733.9121875000001,329.22016059636366L734.7635937499999,329.2326852218182L735.615,329.2451838L736.46640625,329.2576590727273L737.3178125000001,329.2700767672727L738.16921875,329.28245607636364L739.020625,329.29480933818184L739.87203125,329.30713244000003L740.7234374999999,329.31941167272726L741.57484375,329.33165937454544L742.42625,329.34387828727273L743.2776562500001,329.35606703999997L744.1290625,329.36822426181817L744.98046875,329.3803321309091L745.831875,329.3924057272727L746.68328125,329.40445053454545L747.5346875,329.4164459890909L748.38609375,329.4284044290909L749.2375,329.4403423054545L750.0889062499999,329.45224453818184L750.9403125,329.46410564363634L751.79171875,329.4759557818182L752.643125,329.4877702763636L753.49453125,329.4995546109091L754.3459375,329.51130741454546L755.19734375,329.52302457454545L756.04875,329.5347074618182L756.90015625,329.5463656727273L757.7515625,329.55800332L758.6029687500001,329.5696025818182L759.4543749999999,329.5811648290909L760.30578125,329.59269691636365L761.1571875,329.60419336L762.00859375,329.6156623854545L762.86,329.62710399272726L763.7114062500001,329.63852366545456L764.5628125,329.64991592L765.41421875,329.6612780145455L766.265625,329.6726044654545L767.11703125,329.6838925309091L767.9684375,329.69515317818184L768.8198437499999,329.7063864072727L769.67125,329.7175977018182L770.52265625,329.7287651272727L771.3740625,329.7398996509091L772.22546875,329.7509957890909L773.0768750000001,329.7620508L773.9282812499999,329.77307016727275L774.7796875,329.7840676L775.63109375,329.79504035636364L776.4825,329.8059925490909L777.33390625,329.81690909818184L778.1853125,329.82779548727274L779.03671875,329.8386462327273L779.888125,329.8494517381818L780.73953125,329.86020789090907L781.5909375,329.8709297709091L782.4423437500001,329.8816132654546L783.29375,329.8922487781818L784.14515625,329.9028513890909L784.9965625,329.9134320654546L785.84796875,329.9239962909091L786.699375,329.93453035636367L787.55078125,329.94502877818184L788.4021875,329.9554956690909L789.2535937499999,329.9659186909091L790.105,329.9763088109091L790.95640625,329.9866838509091L791.8078125000001,329.99703010181815L792.65921875,330.0073585309091L793.510625,330.0176759927273L794.36203125,330.02797974545456L795.2134374999999,330.0382451127273L796.06484375,330.04849402909093L796.91625,330.05871964L797.7676562500001,330.0689219454546L798.6190624999999,330.07909957454547L799.47046875,330.0892538981818L800.321875,330.09938491636365L801.1732812500001,330.1095077090909L802.0246875,330.11962227636366L802.87609375,330.12970942545456L803.7275,330.1397581890909L804.5789062499999,330.14977405090906L805.4303125,330.15975975272727L806.28171875,330.1697262618182L807.1331250000001,330.17967083636364L807.98453125,330.18960170181816L808.8359375,330.1995243418182L809.68734375,330.2094168218182L810.53875,330.2192846254545L811.39015625,330.2291250109091L812.2415625,330.23894209090906L813.09296875,330.24873723636364L813.9443749999999,330.2585173018182L814.79578125,330.2682740618182L815.6471875,330.27800888727273L816.49859375,330.28772040727273L817.35,330.29741547636365L818.20140625,330.30709683636366L819.0528125,330.31676585818184L819.90421875,330.32641294545454L821.60703125,330.34563994545454L822.4584375000001,330.35520752L823.3098437499999,330.3647490472727L824.16125,330.37426041454546L825.01265625,330.38376081454544L825.8640625,330.3932283127273L826.71546875,330.40267661818183L827.5668750000001,330.41209887636364L828.41828125,330.4215156509091L829.2696875,330.4309146036364L830.12109375,330.4402902509091L830.9725,330.44963848L831.82390625,330.4589688872727L832.6753124999999,330.46828147272726L833.52671875,330.4775721236364L834.378125,330.48683124363635L835.22953125,330.4960602036364L836.0809375,330.5052727127273L836.9323437500001,330.51446328727275L837.7837499999999,330.5236401527273L838.63515625,330.53279782545457L839.4865625,330.5419390472727L840.33796875,330.5510583345455L841.189375,330.56014197818183L842.04078125,330.56919820363635L842.8921875,330.57823249454543L843.74359375,330.58724896363634L844.595,330.59626543272725L845.44640625,330.60527367636365L846.2978125000001,330.6142654690909L847.14921875,330.6232353272727L848.000625,330.63217502545456L848.85203125,330.64109416L849.7034375,330.64999136L850.55484375,330.65886662545455L851.40625,330.6677199563636L852.25765625,330.67655683636366L853.1090624999999,330.68537178181816L853.96046875,330.6941647927273L854.811875,330.7029317563636L855.6632812500001,330.7116740436364L856.5146875,330.72038480000003L857.36609375,330.7290832181818L858.2175,330.73775696L859.0689062499999,330.7464142509091L859.9203125,330.7550578327273L860.77171875,330.76367262545455L861.6231250000001,330.7722668545455L862.4745312499999,330.78084737454543L863.3259375,330.78941007272726L864.17734375,330.79795632L865.0287500000001,330.8064778909091L865.88015625,330.81498026909094L866.7315625,330.82347716363637L867.58296875,330.8319576072727L868.4343749999999,330.8404216L869.28578125,330.8488705127273L870.1371875,330.85730160363636L870.9885937500001,330.8657272109091L871.84,330.8741240290909L872.69140625,330.8825002836364L873.5428125,330.8908614581818L874.39421875,330.89920755272726L875.245625,330.9075399381818L876.09703125,330.9158490181818L876.9484375,330.9241361636364L877.7998437499999,330.9324137127273L878.65125,330.94067618181816L879.50265625,330.9489180872727L880.3540625,330.95713531636363L881.20546875,330.96533335272727L882.056875,330.97351356727273L882.90828125,330.98167870181817L883.7596875,330.9898356109091L884.61109375,330.9979664727273L885.4625,331.00607265818184L886.3139062500001,331.01416513454546L887.1653124999999,331.02223430545456L888.01671875,331.0302925090909L888.868125,331.0383328909091L889.71953125,331.04635819272727L890.5709375,331.05435470545456L891.4223437500001,331.06232928363636L892.27375,331.0702791854545L893.12515625,331.0782140072727L893.9765625,331.0861323781818L894.82796875,331.0940301854545L895.679375,331.10191428363635L896.5307812499999,331.10978878545455L897.3821875,331.1176440945454L898.23359375,331.1254733563636L899.085,331.1332930218182L899.93640625,331.14109897818184L900.7878125000001,331.1488925963636L901.6392187499999,331.15667524727274L902.490625,331.1644359636364L903.34203125,331.17217611636363L904.1934375,331.17989707636366L905.04484375,331.18760158545456L905.89625,331.1952882727273L906.74765625,331.2029543963636L907.5990625,331.21060544L908.45046875,331.21824551636365L909.301875,331.2258664L910.1532812500001,331.2334694618182L911.0046875,331.24105607272725L911.85609375,331.24863171636366L912.7075,331.2561936509091L913.55890625,331.26373982L914.4103125,331.27127159454545L915.26171875,331.2787876036364L916.113125,331.2862974436364L916.9645312499999,331.2937949454546L917.8159375,331.30127736727275L918.66734375,331.3087501927273L919.5187500000001,331.31621068L920.37015625,331.3236574581818L921.2215625,331.33109464L922.07296875,331.3385242818182L922.9243749999999,331.34594021454546L923.77578125,331.35333695454545L924.6271875,331.36072272727273L925.4785937500001,331.36809547636364L926.3299999999999,331.37545040363636L927.18140625,331.38279025090907L928.0328125,331.39011364727276L928.8842187500001,331.39741648L929.735625,331.4047014909091L930.58703125,331.4119659381818L931.4384375,331.41921804727275L932.2898437499999,331.42646124545456L933.14125,331.43369553272726L933.99265625,331.4409030872727L934.8440625000001,331.44809350545455L935.69546875,331.4552619890909L936.546875,331.46240442545457" style="fill: none;" fill="none"></path></g></g></g></g></g></g><g transform="translate(68, 377)" clip-path="url(#clip_1)"><clipPath id="clip_1"><rect width="1021" height="23"></rect></clipPath><g><g><line x1="0" y1="0" x2="0" y2="5" style="visibility: inherit;" fill="rgb(0, 0, 0)" stroke="rgb(204, 204, 204)" stroke-width="1px"></line><line x1="85.140625" y1="0" x2="85.140625" y2="5" style="visibility: inherit;" fill="rgb(0, 0, 0)" stroke="rgb(204, 204, 204)" stroke-width="1px"></line><line x1="170.28125" y1="0" x2="170.28125" y2="5" style="visibility: inherit;" fill="rgb(0, 0, 0)" stroke="rgb(204, 204, 204)" stroke-width="1px"></line><line x1="255.421875" y1="0" x2="255.421875" y2="5" style="visibility: inherit;" fill="rgb(0, 0, 0)" stroke="rgb(204, 204, 204)" stroke-width="1px"></line><line x1="340.5625" y1="0" x2="340.5625" y2="5" style="visibility: inherit;" fill="rgb(0, 0, 0)" stroke="rgb(204, 204, 204)" stroke-width="1px"></line><line x1="425.703125" y1="0" x2="425.703125" y2="5" style="visibility: inherit;" fill="rgb(0, 0, 0)" stroke="rgb(204, 204, 204)" stroke-width="1px"></line><line x1="510.84375" y1="0" x2="510.84375" y2="5" style="visibility: inherit;" fill="rgb(0, 0, 0)" stroke="rgb(204, 204, 204)" stroke-width="1px"></line><line x1="595.984375" y1="0" x2="595.984375" y2="5" style="visibility: inherit;" fill="rgb(0, 0, 0)" stroke="rgb(204, 204, 204)" stroke-width="1px"></line><line x1="681.125" y1="0" x2="681.125" y2="5" style="visibility: inherit;" fill="rgb(0, 0, 0)" stroke="rgb(204, 204, 204)" stroke-width="1px"></line><line x1="766.265625" y1="0" x2="766.265625" y2="5" style="visibility: inherit;" fill="rgb(0, 0, 0)" stroke="rgb(204, 204, 204)" stroke-width="1px"></line><line x1="851.40625" y1="0" x2="851.40625" y2="5" style="visibility: inherit;" fill="rgb(0, 0, 0)" stroke="rgb(204, 204, 204)" stroke-width="1px"></line><line x1="936.546875" y1="0" x2="936.546875" y2="5" style="visibility: inherit;" fill="rgb(0, 0, 0)" stroke="rgb(204, 204, 204)" stroke-width="1px"></line><line x1="1021.6875" y1="0" x2="1021.6875" y2="5" style="visibility: inherit;" fill="rgb(0, 0, 0)" stroke="rgb(204, 204, 204)" stroke-width="1px"></line></g><g transform="translate(0, 8)"><text x="0" y="0" dx="0em" dy="0.95em" style="text-anchor: middle; visibility: hidden; font-family: &quot;Helvetica Neue&quot;, sans-serif; font-size: 12px; font-weight: 200;" fill="rgb(50, 49, 63)" stroke="none" stroke-width="1px">-100</text><text x="85.140625" y="0" dx="0em" dy="0.95em" style="text-anchor: middle; visibility: inherit; font-family: &quot;Helvetica Neue&quot;, sans-serif; font-size: 12px; font-weight: 200;" fill="rgb(50, 49, 63)" stroke="none" stroke-width="1px">0</text><text x="170.28125" y="0" dx="0em" dy="0.95em" style="text-anchor: middle; visibility: inherit; font-family: &quot;Helvetica Neue&quot;, sans-serif; font-size: 12px; font-weight: 200;" fill="rgb(50, 49, 63)" stroke="none" stroke-width="1px">100</text><text x="255.421875" y="0" dx="0em" dy="0.95em" style="text-anchor: middle; visibility: inherit; font-family: &quot;Helvetica Neue&quot;, sans-serif; font-size: 12px; font-weight: 200;" fill="rgb(50, 49, 63)" stroke="none" stroke-width="1px">200</text><text x="340.5625" y="0" dx="0em" dy="0.95em" style="text-anchor: middle; visibility: inherit; font-family: &quot;Helvetica Neue&quot;, sans-serif; font-size: 12px; font-weight: 200;" fill="rgb(50, 49, 63)" stroke="none" stroke-width="1px">300</text><text x="425.703125" y="0" dx="0em" dy="0.95em" style="text-anchor: middle; visibility: inherit; font-family: &quot;Helvetica Neue&quot;, sans-serif; font-size: 12px; font-weight: 200;" fill="rgb(50, 49, 63)" stroke="none" stroke-width="1px">400</text><text x="510.84375" y="0" dx="0em" dy="0.95em" style="text-anchor: middle; visibility: inherit; font-family: &quot;Helvetica Neue&quot;, sans-serif; font-size: 12px; font-weight: 200;" fill="rgb(50, 49, 63)" stroke="none" stroke-width="1px">500</text><text x="595.984375" y="0" dx="0em" dy="0.95em" style="text-anchor: middle; visibility: inherit; font-family: &quot;Helvetica Neue&quot;, sans-serif; font-size: 12px; font-weight: 200;" fill="rgb(50, 49, 63)" stroke="none" stroke-width="1px">600</text><text x="681.125" y="0" dx="0em" dy="0.95em" style="text-anchor: middle; visibility: inherit; font-family: &quot;Helvetica Neue&quot;, sans-serif; font-size: 12px; font-weight: 200;" fill="rgb(50, 49, 63)" stroke="none" stroke-width="1px">700</text><text x="766.265625" y="0" dx="0em" dy="0.95em" style="text-anchor: middle; visibility: inherit; font-family: &quot;Helvetica Neue&quot;, sans-serif; font-size: 12px; font-weight: 200;" fill="rgb(50, 49, 63)" stroke="none" stroke-width="1px">800</text><text x="851.40625" y="0" dx="0em" dy="0.95em" style="text-anchor: middle; visibility: inherit; font-family: &quot;Helvetica Neue&quot;, sans-serif; font-size: 12px; font-weight: 200;" fill="rgb(50, 49, 63)" stroke="none" stroke-width="1px">900</text><text x="936.546875" y="0" dx="0em" dy="0.95em" style="text-anchor: middle; visibility: inherit; font-family: &quot;Helvetica Neue&quot;, sans-serif; font-size: 12px; font-weight: 200;" fill="rgb(50, 49, 63)" stroke="none" stroke-width="1px">1k</text><text x="1021.6875" y="0" dx="0em" dy="0.95em" style="text-anchor: middle; visibility: hidden; font-family: &quot;Helvetica Neue&quot;, sans-serif; font-size: 12px; font-weight: 200;" fill="rgb(50, 49, 63)" stroke="none" stroke-width="1px">1.1k</text></g><line x1="0" y1="0" x2="1021.6875" y2="0" fill="rgb(0, 0, 0)" stroke="rgb(204, 204, 204)" stroke-width="1px"></line></g></g></g></g></svg>